<?xml version="1.0" encoding="UTF-8" standalone="no"?>
<!-- Created with Inkscape (http://www.inkscape.org/) -->

<svg
   xmlns:dc="http://purl.org/dc/elements/1.1/"
   xmlns:cc="http://creativecommons.org/ns#"
   xmlns:rdf="http://www.w3.org/1999/02/22-rdf-syntax-ns#"
   xmlns:svg="http://www.w3.org/2000/svg"
   xmlns="http://www.w3.org/2000/svg"
   xmlns:sodipodi="http://sodipodi.sourceforge.net/DTD/sodipodi-0.dtd"
   xmlns:inkscape="http://www.inkscape.org/namespaces/inkscape"
   width="38.000092mm"
   height="15.265344mm"
   viewBox="0 0 38.000092 15.265344"
   version="1.1"
   id="svg8"
   inkscape:version="0.92.4 (5da689c313, 2019-01-14)"
   sodipodi:docname="SMHI_Logo.svg">
  <defs
     id="defs2">
    <clipPath
       id="clipPath3769"
       clipPathUnits="userSpaceOnUse">
      <path
         inkscape:connector-curvature="0"
         id="path3767"
         d="M 0,841.89 H 595.276 V 0 H 0 Z" />
    </clipPath>
    <clipPath
       id="clipPath3909"
       clipPathUnits="userSpaceOnUse">
      <path
         inkscape:connector-curvature="0"
         id="path3907"
         d="M 0,0 H 595.276 V 841.89 H 0 Z" />
    </clipPath>
    <clipPath
       id="clipPath3959"
       clipPathUnits="userSpaceOnUse">
      <path
         inkscape:connector-curvature="0"
         id="path3957"
         d="M 305.433,142.502 H 529.511 V 277.94 H 305.433 Z" />
    </clipPath>
    <clipPath
       id="clipPath4023"
       clipPathUnits="userSpaceOnUse">
      <path
         inkscape:connector-curvature="0"
         id="path4021"
         d="M 68.032,332.5 H 527.244 V 565.323 H 68.032 Z" />
    </clipPath>
  </defs>
  <sodipodi:namedview
     id="base"
     pagecolor="#ffffff"
     bordercolor="#666666"
     borderopacity="1.0"
     inkscape:pageopacity="0.0"
     inkscape:pageshadow="2"
     inkscape:zoom="0.35"
     inkscape:cx="-160.32594"
     inkscape:cy="-507.0848"
     inkscape:document-units="mm"
     inkscape:current-layer="layer1"
     showgrid="false"
     fit-margin-top="0"
     fit-margin-left="0"
     fit-margin-right="0"
     fit-margin-bottom="0"
     inkscape:window-width="1920"
     inkscape:window-height="1023"
     inkscape:window-x="0"
     inkscape:window-y="27"
     inkscape:window-maximized="1" />
  <metadata
     id="metadata5">
    <rdf:RDF>
      <cc:Work
         rdf:about="">
        <dc:format>image/svg+xml</dc:format>
        <dc:type
           rdf:resource="http://purl.org/dc/dcmitype/StillImage" />
        <dc:title></dc:title>
      </cc:Work>
    </rdf:RDF>
  </metadata>
  <g
     inkscape:label="Layer 1"
     inkscape:groupmode="layer"
     id="layer1"
     transform="translate(-152.03267,-2.4256129)">
    <g
       id="g4301">
      <g
         transform="matrix(0.35277777,0,0,-0.35277777,-5.6996362,286.72254)"
         id="g3903">
        <g
           clip-path="url(#clipPath3909)"
           id="g3905">
          <g
             transform="translate(467.3123,804.243)"
             id="g3911">
            <path
               inkscape:connector-curvature="0"
               id="path3913"
               style="fill:#231f20;fill-opacity:1;fill-rule:nonzero;stroke:none"
               d="M 0,0 C 0.244,-0.122 0.549,-0.264 0.752,-0.468 V -12.93 c -0.264,0.224 -0.365,0.346 -0.467,0.427 -1.871,2.176 -4.434,4.473 -7.566,3.416 -0.794,-0.346 -1.464,-1.139 -1.464,-1.993 -0.143,-1.138 0.772,-2.093 1.647,-2.785 2.156,-1.667 4.555,-3.171 6.325,-5.265 1.037,-1.118 1.749,-2.541 2.359,-3.923 0.123,-0.224 0.265,-0.652 0.265,-0.652 l 2.99,24.681 h 14.135 l 3.377,-19.13 3.864,19.13 H 40.21 l 4.394,-41.777 H 32.583 l -1.525,22.688 -4.536,-22.688 H 17.919 L 13.647,-19.15 12.082,-40.801 H -0.061 c 0,0 0.346,3.253 0.753,6.566 l -0.57,-1.199 c -3.03,-4.675 -8.339,-6.79 -13.932,-6.058 -2.035,0.366 -4.068,0.711 -5.878,1.606 -0.062,0.04 -0.122,0.122 -0.122,0.122 v 12.604 l 0.081,-0.082 c 0.549,-0.487 0.915,-0.995 1.423,-1.381 1.994,-1.891 4.801,-3.497 7.608,-2.196 0.772,0.447 1.261,1.28 1.322,2.196 0.04,2.134 -2.237,3.435 -3.681,4.675 -4.292,2.907 -7.546,7.542 -7.099,12.584 0.224,4.899 3.173,10.531 8.42,12.299 C -8.013,2.256 -3.396,1.586 0,0" />
          </g>
        </g>
      </g>
      <g
         transform="matrix(0.35277777,0,0,-0.35277777,179.19091,7.8156942)"
         id="g3915">
        <path
           inkscape:connector-curvature="0"
           id="path3917"
           style="fill:#231f20;fill-opacity:1;fill-rule:nonzero;stroke:none"
           d="M 0,0 H 5.532 V 14.617 H 16.82 l 0.02,-41.797 -11.573,0.02 -0.04,16.853 H 0.02 L 0,-27.16 -11.858,-27.14 V 14.596 H -0.02 Z" />
      </g>
      <path
         inkscape:connector-curvature="0"
         id="path3919"
         style="fill:#231f20;fill-opacity:1;fill-rule:nonzero;stroke:none;stroke-width:0.35277778"
         d="m 185.94265,2.6591768 h 4.09011 V 17.397174 h -4.09011 z" />
    </g>
  </g>
</svg>
